PathFileType	4	(X/Y/Z)	/Users/itak/Documents/Research/Walk-IL/dataset/trc/00397_00012.trc
DataRate	CameraRate	NumFrames	NumMarkers	Units	OrigDataRate	OrigDataStartFrame	OrigNumFrames
100.000000	100.000000	4	53	mm	100.000000	541	722
Frame#	Time	RPSI			LPSI			L3			STRN			T10			C7			CLAV			RBAK			LBAK			LSHO			LUPA			LAEL			LAOL			LWTS			LWPS			LFRA			LIFD			LHPS			LHTS			RSHO			RUPA			RAEL			RAOL			RWTS			RWPS			RFRA			RIFD			RHTS			RHPS			RBHD			LFHD			RFHD			LBHD			LHIP			RHIP			RASI			LASI			LKNE			LTHI			LANK			LTIP			LTOE			LMT1			LMT5			LHEE			RKNE			RTHI			RANK			RTIP			RTOE			RMT1			RMT5			RHEE			
		X1	Y1	Z1	X2	Y2	Z2	X3	Y3	Z3	X4	Y4	Z4	X5	Y5	Z5	X6	Y6	Z6	X7	Y7	Z7	X8	Y8	Z8	X9	Y9	Z9	X10	Y10	Z10	X11	Y11	Z11	X12	Y12	Z12	X13	Y13	Z13	X14	Y14	Z14	X15	Y15	Z15	X16	Y16	Z16	X17	Y17	Z17	X18	Y18	Z18	X19	Y19	Z19	X20	Y20	Z20	X21	Y21	Z21	X22	Y22	Z22	X23	Y23	Z23	X24	Y24	Z24	X25	Y25	Z25	X26	Y26	Z26	X27	Y27	Z27	X28	Y28	Z28	X29	Y29	Z29	X30	Y30	Z30	X31	Y31	Z31	X32	Y32	Z32	X33	Y33	Z33	X34	Y34	Z34	X35	Y35	Z35	X36	Y36	Z36	X37	Y37	Z37	X38	Y38	Z38	X39	Y39	Z39	X40	Y40	Z40	X41	Y41	Z41	X42	Y42	Z42	X43	Y43	Z43	X44	Y44	Z44	X45	Y45	Z45	X46	Y46	Z46	X47	Y47	Z47	X48	Y48	Z48	X49	Y49	Z49	X50	Y50	Z50	X51	Y51	Z51	X52	Y52	Z52	X53	Y53	Z53	

542	5.41	-826.9181518554688	953.89208984375	-23.61025238037109	-695.0401000976562	940.0200805664062	-16.37917900085449	-753.7421875	1024.708984375	-23.08913421630859	-781.270263671875	1191.011108398438	196.5752410888672	-737.0213012695312	1124.339477539062	-46.48796463012695	-722.3692626953125	1373.869262695312	-19.70502471923828	-767.8670654296875	1306.123291015625	136.2351379394531	-776.9652099609375	1225.218139648438	-69.67221832275391	-619.3949584960938	1337.39013671875	-9.176996231079102	-591.5364379882812	1359.949829101562	86.1016845703125	-522.8817138671875	1238.948120117188	85.82040405273438	-511.4080505371094	1045.719116210938	133.5684814453125	-558.5767211914062	1015.837890625	67.33983612060547	-596.6303100585938	908.913818359375	291.991455078125	-526.6419677734375	870.593017578125	270.7513122558594	-514.503173828125	961.873046875	186.0625915527344	-608.6927490234375	758.7571411132812	390.5532836914062	-546.9395751953125	807.6162719726562	326.1427001953125	-589.9088745117188	838.3336791992188	361.5423583984375	-886.7566528320312	1356.085083007812	-6.21502161026001	-934.404296875	1294.04541015625	-37.59788131713867	-966.7486572265625	1036.02734375	-75.15787506103516	-877.2424926757812	1024.503784179688	-54.72937393188477	-984.5762939453125	805.791259765625	24.77665901184082	-1025.467651367188	804.4923706054688	-37.2923583984375	-992.3047485351562	970.9490966796875	-66.22803497314453	-987.878173828125	634.2128295898438	-5.957089424133301	-1008.081359863281	700.22509765625	18.90625953674316	-1027.151611328125	716.3265991210938	-46.75925064086914	-824.4757690429688	1571.962768554688	22.58594703674316	-685.9298095703125	1563.03076171875	163.2451171875	-805.6442260742188	1574.635498046875	155.2417144775391	-667.4268188476562	1555.056518554688	15.81928634643555	-587.8089599609375	925.5511474609375	77.26113128662109	-944.1239013671875	945.0404052734375	56.40846633911133	-894.8041381835938	959.3551635742188	189.9001312255859	-632.4393920898438	929.0726928710938	191.6282501220703	-639.7307739257812	438.3657531738281	77.28697204589844	-622.3618774414062	577.8616943359375	89.04338836669922	-621.2282104492188	105.2460021972656	-242.6683807373047	-616.98388671875	265.7948913574219	-87.17299652099609	-784.8151245117188	39.1072998046875	-125.5513763427734	-762.0017700195312	73.14735412597656	-186.6081085205078	-673.4432373046875	41.27481842041016	-147.7927551269531	-651.9609375	144.4297027587891	-290.3478393554688	-947.6488647460938	487.31494140625	259.1033630371094	-959.22021484375	742.23388671875	194.6745300292969	-952.4618530273438	53.38288116455078	285.404541015625	-941.8840942382812	363.1720581054688	294.8764038085938	-880.6094970703125	42.43362808227539	461.0704650878906	-854.7144165039062	47.86953353881836	385.183349609375	-954.859375	43.23490905761719	369.1051330566406	-903.854248046875	40.22689819335938	210.6426696777344	
543	5.42	-832.3510131835938	955.41015625	-13.78451538085938	-700.4913330078125	940.677001953125	-8.428994178771973	-759.122802734375	1025.868408203125	-14.26370143890381	-783.2077026367188	1192.8779296875	205.1952514648438	-742.3043212890625	1125.464111328125	-38.00205612182617	-727.1246337890625	1374.95361328125	-12.31426811218262	-770.7302856445312	1307.996215820312	144.4580841064453	-782.3674926757812	1226.199829101562	-60.95662689208984	-624.0059204101562	1338.580078125	-2.932693243026733	-595.0431518554688	1361.456298828125	91.93614959716797	-526.4071044921875	1240.566772460938	91.64035797119141	-515.0731201171875	1046.869995117188	139.2497100830078	-562.668212890625	1017.759826660156	73.39694213867188	-596.5086059570312	902.4298706054688	294.3834533691406	-527.706298828125	864.8925170898438	269.4246520996094	-517.1712646484375	960.35205078125	189.3145141601562	-606.4400634765625	747.999755859375	385.9448547363281	-546.6012573242188	799.5807495117188	322.2088012695312	-588.3299560546875	828.6504516601562	360.1629638671875	-891.3298950195312	1357.489135742188	3.483268022537231	-939.52294921875	1295.439697265625	-26.83652114868164	-973.4439086914062	1037.323364257812	-62.19931793212891	-882.68896484375	1026.111572265625	-43.48403167724609	-991.5348510742188	807.94970703125	40.04496765136719	-1033.025756835938	806.4619140625	-21.61064338684082	-999.1836547851562	972.392822265625	-52.44709396362305	-996.2173461914062	636.18212890625	10.3077974319458	-1015.707763671875	702.4163208007812	35.08054351806641	-1035.414672851562	718.2821044921875	-30.48700714111328	-828.69873046875	1573.113159179688	30.26682472229004	-688.4209594726562	1564.881469726562	169.2874755859375	-808.2367553710938	1576.3984375	162.7239990234375	-671.6858520507812	1556.246948242188	21.69421768188477	-591.9530639648438	926.0405883789062	83.58074188232422	-948.4786376953125	947.564208984375	68.02590942382812	-897.0986328125	961.6492309570312	200.7429504394531	-635.051513671875	930.2919311523438	198.528076171875	-640.8431396484375	438.7620849609375	90.97848510742188	-624.7977905273438	577.9940795898438	100.3404388427734	-621.6443481445312	112.312370300293	-235.6050872802734	-618.047119140625	269.7045288085938	-76.90898132324219	-784.5340576171875	38.84649276733398	-124.0417022705078	-762.1097412109375	75.74986267089844	-181.8293304443359	-673.5841674804688	41.19064331054688	-145.8165130615234	-653.1925659179688	153.6531677246094	-280.7048950195312	-949.4755249023438	487.2403564453125	266.243408203125	-962.548583984375	743.7802734375	205.6861267089844	-952.1792602539062	53.59341812133789	285.8169555664062	-942.9848022460938	362.4967041015625	300.3480529785156	-880.4121704101562	40.97738265991211	461.8549194335938	-854.5939331054688	47.00043869018555	385.5494995117188	-954.8421020507812	43.23490524291992	369.3685913085938	-903.6162109375	40.64269256591797	210.9818725585938	
544	5.43	-837.85205078125	956.8635864257812	-4.119871616363525	-706.0573120117188	941.3059692382812	-0.7812391519546509	-764.6041870117188	1027.17724609375	-5.775854587554932	-784.934326171875	1194.620483398438	213.6685485839844	-747.592529296875	1126.611572265625	-29.52633476257324	-731.78662109375	1376.0498046875	-4.9655442237854	-773.3609008789062	1309.766967773438	152.5951995849609	-787.7916259765625	1227.218139648438	-52.27457809448242	-628.5510864257812	1339.724609375	3.175296068191528	-598.4169311523438	1362.88134765625	97.60854339599609	-529.7960815429688	1242.107299804688	97.277587890625	-518.5193481445312	1048.07470703125	144.7602691650391	-566.494384765625	1019.569213867188	79.32105255126953	-596.2056884765625	896.1302490234375	296.2659606933594	-528.6810913085938	859.5640869140625	267.6443176269531	-519.70458984375	958.984619140625	192.2791900634766	-604.32275390625	737.591796875	380.3313293457031	-546.3167724609375	791.9133911132812	317.5996704101562	-586.7307739257812	819.1797485351562	358.0130920410156	-895.7811889648438	1358.955200195312	13.28862476348877	-944.582275390625	1296.932495117188	-15.95272827148438	-980.1062622070312	1038.760009765625	-49.23821640014648	-888.3662719726562	1027.909912109375	-31.99088668823242	-998.2783813476562	810.3316650390625	55.50516891479492	-1040.42333984375	808.56005859375	-5.672695636749268	-1005.989013671875	973.9498901367188	-38.60916519165039	-1004.357849121094	638.3590698242188	27.06181526184082	-1023.147583007812	704.85595703125	51.62144088745117	-1043.543334960938	720.3739624023438	-13.83727073669434	-832.8404541015625	1574.204467773438	37.91520309448242	-690.8329467773438	1566.753662109375	175.2594299316406	-810.7467651367188	1578.139282226562	170.1484375	-675.8889770507812	1557.427124023438	27.52390480041504	-596.1676635742188	926.5629272460938	89.54680633544922	-952.8443603515625	949.8475341796875	79.46157073974609	-899.3052978515625	963.71826171875	211.3111724853516	-637.5128784179688	931.4678344726562	205.1248168945312	-641.7923583984375	439.2427673339844	104.9936294555664	-627.0552368164062	578.18701171875	111.8083419799805	-622.0989990234375	119.6493988037109	-227.7674713134766	-619.0979614257812	273.5532836914062	-65.98858642578125	-784.2030639648438	38.43828201293945	-121.8392486572266	-762.3602294921875	78.69998168945312	-176.3888549804688	-673.736572265625	41.51741790771484	-143.4268951416016	-654.4865112304688	162.8885650634766	-270.2469482421875	-951.2049560546875	486.94873046875	272.5227966308594	-965.799560546875	744.8189697265625	215.9653625488281	-951.7721557617188	53.84928131103516	286.1210021972656	-944.0172729492188	361.7237548828125	305.2057800292969	-880.205322265625	39.9155158996582	462.5874938964844	-854.4008178710938	46.30700302124023	385.8413696289062	-954.73095703125	43.39775848388672	369.5557861328125	-903.2066040039062	41.01611328125	211.2485504150391	
545	5.44	-843.4050903320312	958.236572265625	5.348017692565918	-711.7142944335938	941.8678588867188	6.561655044555664	-770.1748657226562	1028.6240234375	2.407315015792847	-786.4611206054688	1196.191772460938	221.9742889404297	-752.8765869140625	1127.752319335938	-21.0978889465332	-736.3592529296875	1377.138427734375	2.332282543182373	-775.7543334960938	1311.376708984375	160.6264495849609	-793.2536010742188	1228.255615234375	-43.65336990356445	-633.0330200195312	1340.791870117188	9.139058113098145	-601.654052734375	1364.171264648438	103.113166809082	-533.063232421875	1243.508911132812	102.6585006713867	-521.7243041992188	1049.26611328125	150.0464172363281	-570.087646484375	1021.192626953125	85.06356811523438	-595.810302734375	890.0618286132812	297.6293640136719	-529.5584106445312	854.6630859375	265.5010986328125	-522.0860595703125	957.76513671875	194.9541625976562	-602.3394775390625	727.6422119140625	373.79296875	-546.0966796875	784.7061767578125	312.4296569824219	-585.1946411132812	810.0245361328125	355.1533203125	-900.1038818359375	1360.452514648438	23.19116592407227	-949.5918579101562	1298.482055664062	-4.967053413391113	-986.7678833007812	1040.287475585938	-36.27668762207031	-894.3289184570312	1029.754638671875	-20.30529403686523	-1004.80517578125	812.9005126953125	71.11442565917969	-1047.650756835938	810.7420043945312	10.49617767333984	-1012.743957519531	975.5823364257812	-24.71159934997559	-1012.273376464844	640.7080688476562	44.3289909362793	-1030.379272460938	707.516845703125	68.52743530273438	-1051.529296875	722.558837890625	3.184922456741333	-836.889404296875	1575.220336914062	45.53764343261719	-693.1617431640625	1568.611938476562	181.1626281738281	-813.1671142578125	1579.8330078125	177.5155944824219	-680.0336303710938	1558.573120117188	33.30712127685547	-600.4684448242188	927.05810546875	95.17568206787109	-957.1845092773438	951.8694458007812	90.70718383789062	-901.4086303710938	965.506591796875	221.5838317871094	-639.8394165039062	932.5838623046875	211.4626922607422	-642.6876220703125	439.8056945800781	119.2594985961914	-629.19140625	578.4347534179688	123.4033050537109	-622.6384887695312	127.2170791625977	-219.2015075683594	-620.19091796875	277.2919616699219	-54.46257781982422	-783.7714233398438	37.88515853881836	-118.6864242553711	-762.7488403320312	82.01309967041016	-170.1571655273438	-673.8905639648438	42.38450241088867	-140.4629974365234	-655.9036865234375	172.0287322998047	-259.1075744628906	-952.787841796875	486.5118103027344	278.1689758300781	-968.8571166992188	745.3768920898438	225.5413970947266	-951.2847290039062	54.12434005737305	286.3645324707031	-944.9380493164062	360.8977355957031	309.6085815429688	-879.9961547851562	39.1247444152832	463.2781677246094	-854.1563720703125	45.74604415893555	386.0882568359375	-954.5379028320312	43.64580917358398	369.7044677734375	-902.7180786132812	41.37246704101562	211.4513549804688	
